<svg width="200" height="200" viewBox="0 0 200 200" fill="none" xmlns="http://www.w3.org/2000/svg">
  <rect width="200" height="200" fill="#090506"/>
  <circle cx="100" cy="100" r="82" stroke="#c75445" stroke-width="6" fill="none"/>
  <g filter="url(#glow)">
    <path d="M64 140c20-34 40-52 62-60l13-5-4 14c-5 17-18 35-38 54l-7 7c-1 2-3 4-6 5-4 2-9 0-12-4-3-4-3-9-1-11l4-6Z" fill="#4fe7d3"/>
    <path d="M110 53c-13 7-24 17-32 27-9 12-14 23-16 35l13-8c13-7 28-13 45-16l24-5-10-9c-7-6-15-11-24-14Z" fill="#4fe7d3"/>
    <path d="M107 70c-6-4-14-4-22-1-8 4-15 12-19 21-5 9-7 19-6 28 12-12 30-25 47-32 12-5 21-7 28-6-5-5-12-8-19-10-3 0-6 0-9 0Z" fill="#0b2f2c"/>
  </g>
  <defs>
    <filter id="glow" x="40" y="40" width="124" height="120" filterUnits="userSpaceOnUse" color-interpolation-filters="sRGB">
      <feGaussianBlur stdDeviation="3" result="blur"/>
      <feMerge>
        <feMergeNode in="blur"/>
        <feMergeNode in="SourceGraphic"/>
      </feMerge>
    </filter>
  </defs>
</svg>
