<svg width="200" height="200" viewBox="0 0 200 200" fill="none" xmlns="http://www.w3.org/2000/svg">
  <rect width="200" height="200" fill="#080405"/>
  <circle cx="100" cy="100" r="82" stroke="#c75445" stroke-width="6" fill="none"/>
  <g filter="url(#glow)">
    <path d="M72 66C61 82 58 102 63 118c4 13 14 22 27 22 8 0 17-5 21-12l7-11c2-3 6-6 9-6 7 0 12 7 12 16 0 15-8 27-22 34l-17 9-17-9c-16-8-25-23-25-43 0-22 10-45 31-62 7-6 16-11 24-12 9-2 18 0 25 6 7 7 10 18 8 33l-1 10-18 6c0-21-7-32-17-32-10 0-18 5-30 17Z" fill="#4fe7d3"/>
    <path d="M100 76c-7 0-12 6-12 14 0 7 5 14 12 14s12-7 12-14c0-8-5-14-12-14Z" fill="#0b2f2c"/>
    <path d="M67 118c-3 9-6 19-6 26 0 11 4 20 11 25 7 6 17 8 27 8 11 0 20-2 27-8 7-5 11-14 11-25 0-7-3-17-6-26-6 3-12 7-18 14-5 7-11 11-14 11-3 0-9-4-14-11-6-7-12-11-18-14Z" fill="#0b2f2c"/>
  </g>
  <defs>
    <filter id="glow" x="32" y="28" width="136" height="156" filterUnits="userSpaceOnUse" color-interpolation-filters="sRGB">
      <feGaussianBlur stdDeviation="4" result="blur"/>
      <feMerge>
        <feMergeNode in="blur"/>
        <feMergeNode in="SourceGraphic"/>
      </feMerge>
    </filter>
  </defs>
</svg>
