<svg width="320" height="320" viewBox="0 0 320 320" fill="none" xmlns="http://www.w3.org/2000/svg">
  <defs>
    <radialGradient id="un-core" cx="50%" cy="50%" r="65%">
      <stop offset="0%" stop-color="#07200f"/>
      <stop offset="55%" stop-color="#041008"/>
      <stop offset="100%" stop-color="#020603"/>
    </radialGradient>
    <linearGradient id="un-emerald" x1="12%" y1="0%" x2="88%" y2="90%">
      <stop offset="0%" stop-color="#a4f4b5"/>
      <stop offset="38%" stop-color="#5de26a"/>
      <stop offset="100%" stop-color="#2c9d3e"/>
    </linearGradient>
    <filter id="un-glow" x="-40%" y="-40%" width="180%" height="180%" color-interpolation-filters="sRGB">
      <feGaussianBlur stdDeviation="14" result="blur"/>
      <feMerge>
        <feMergeNode in="blur"/>
        <feMergeNode in="SourceGraphic"/>
      </feMerge>
    </filter>
  </defs>

  <rect width="320" height="320" fill="#020603"/>
  <rect width="320" height="320" fill="url(#un-core)" opacity="0.9"/>
  <circle cx="160" cy="160" r="128" stroke="#5de26a" stroke-width="6" opacity="0.7"/>
  <circle cx="160" cy="160" r="110" stroke="#a4f4b5" stroke-width="2" opacity="0.5"/>

  <g filter="url(#un-glow)">
    <path d="M102 199c0-19 9-38 25-53 13-12 30-20 48-21 19-1 38 6 52 19-20 4-36 13-49 24-10 9-18 21-24 33l-5 10-5-10c-6-12-14-24-24-33-13-11-29-20-48-24Z" fill="url(#un-emerald)"/>
    <path d="M128 222c6 11 14 20 24 27 5 3 11 5 17 5 6 0 12-2 17-5 10-7 18-16 24-27-7 2-14 3-22 3-8 0-16-1-23-3-8 2-16 3-24 3-7 0-14-1-21-3Z" fill="url(#un-emerald)"/>
  </g>
</svg>
